<svg width="28" height="22" viewBox="0 0 28 22" fill="none" xmlns="http://www.w3.org/2000/svg">
<path d="M8.62844 6.32021L11.5046 15.5862H23.0092L26.844 6.32021H17.2569H8.62844ZM8.62844 6.32021L6.71101 1.17242H0" stroke="black" stroke-width="1.5"/>
<path d="M13 21C11.8954 21 11 20.1046 11 19C11 17.8954 11.8954 17 13 17C14.1046 17 15 17.8954 15 19C15 20.1046 14.1046 21 13 21Z" stroke="black" stroke-width="1.5"/>
<path d="M23 21C21.8954 21 21 20.1046 21 19C21 17.8954 21.8954 17 23 17C24.1046 17 25 17.8954 25 19C25 20.1046 24.1046 21 23 21Z" stroke="black" stroke-width="1.5"/>
</svg>
