<svg width="19" height="17" viewBox="0 0 19 17" fill="none" xmlns="http://www.w3.org/2000/svg">
<mask id="path-1-inside-1_42_302" fill="white">
<path fill-rule="evenodd" clip-rule="evenodd" d="M1.53553 9.03553L9.5 17L17.1667 9.33334L17.4645 9.03551C19.4171 7.08289 19.4171 3.91707 17.4645 1.96445L16.8689 1.36885C14.9163 -0.583774 11.7504 -0.583776 9.79781 1.36885L9.49999 1.66666L9.2022 1.36887C7.24958 -0.583752 4.08375 -0.583755 2.13113 1.36887L1.53553 1.96447C-0.417088 3.91709 -0.417088 7.08291 1.53553 9.03553Z"/>
</mask>
<path d="M9.5 17L8.29792 18.2021L9.5 19.4042L10.7021 18.2021L9.5 17ZM17.1667 9.33334L18.3687 10.5354L18.3688 10.5354L17.1667 9.33334ZM17.4645 9.03551L16.2624 7.83343L16.2624 7.83346L17.4645 9.03551ZM9.79781 1.36885L8.59573 0.166764L9.79781 1.36885ZM9.49999 1.66666L8.29791 2.86874L9.49999 4.07083L10.7021 2.86874L9.49999 1.66666ZM10.7021 15.7979L2.73762 7.83345L0.333452 10.2376L8.29792 18.2021L10.7021 15.7979ZM15.9646 8.13125L8.29792 15.7979L10.7021 18.2021L18.3687 10.5354L15.9646 8.13125ZM16.2624 7.83346L15.9646 8.13128L18.3688 10.5354L18.6666 10.2376L16.2624 7.83346ZM16.2624 3.16653C17.5511 4.45526 17.5511 6.5447 16.2624 7.83343L18.6666 10.2376C21.2831 7.62108 21.2831 3.37888 18.6666 0.762365L16.2624 3.16653ZM15.6668 2.57093L16.2624 3.16653L18.6666 0.762365L18.071 0.166765L15.6668 2.57093ZM10.9999 2.57093C12.2886 1.2822 14.3781 1.2822 15.6668 2.57093L18.071 0.166765C15.4544 -2.44975 11.2122 -2.44975 8.59573 0.166764L10.9999 2.57093ZM10.7021 2.86874L10.9999 2.57093L8.59573 0.166764L8.29791 0.464581L10.7021 2.86874ZM8.00012 2.57095L8.29791 2.86874L10.7021 0.464581L10.4043 0.166788L8.00012 2.57095ZM3.33322 2.57095C4.62194 1.28222 6.71139 1.28222 8.00012 2.57095L10.4043 0.166788C7.78777 -2.44972 3.54557 -2.44973 0.929052 0.166785L3.33322 2.57095ZM2.73762 3.16655L3.33322 2.57095L0.929052 0.166785L0.333452 0.762385L2.73762 3.16655ZM2.73762 7.83345C1.44889 6.54472 1.44889 4.45528 2.73762 3.16655L0.333452 0.762385C-2.28306 3.3789 -2.28306 7.6211 0.333452 10.2376L2.73762 7.83345Z" fill="black" mask="url(#path-1-inside-1_42_302)"/>
</svg>
