<svg width="30" height="30" viewBox="0 0 30 30" fill="none" xmlns="http://www.w3.org/2000/svg">
<rect width="30" height="30" rx="10" fill="#EFECE7"/>
<mask id="path-2-inside-1_121_7" fill="white">
<path fill-rule="evenodd" clip-rule="evenodd" d="M8.33333 16.3333L15 23L21.6667 16.3333L21.6667 16.3333C23.5076 14.4924 23.5076 11.5076 21.6667 9.66665C19.8257 7.8257 16.841 7.82569 15 9.66664L15 9.66667C13.1591 7.82572 10.1743 7.82572 8.33333 9.66667C6.49238 11.5076 6.49238 14.4924 8.33333 16.3333Z"/>
</mask>
<path fill-rule="evenodd" clip-rule="evenodd" d="M8.33333 16.3333L15 23L21.6667 16.3333L21.6667 16.3333C23.5076 14.4924 23.5076 11.5076 21.6667 9.66665C19.8257 7.8257 16.841 7.82569 15 9.66664L15 9.66667C13.1591 7.82572 10.1743 7.82572 8.33333 9.66667C6.49238 11.5076 6.49238 14.4924 8.33333 16.3333Z" fill="#EFECE7"/>
<path d="M15 23L14.2929 23.7071L15 24.4142L15.7071 23.7071L15 23ZM21.6667 16.3333L22.3738 17.0404L22.4608 16.9534L22.5242 16.8478L21.6667 16.3333ZM21.6667 16.3333L20.9596 15.6262L20.8725 15.7133L20.8092 15.8188L21.6667 16.3333ZM15 9.66664L14.2929 8.95954L14.2324 9.02005L14.183 9.08996L15 9.66664ZM15 9.66667L14.2929 10.3738L15.1323 11.2132L15.817 10.2433L15 9.66667ZM15.7071 22.2929L9.04044 15.6262L7.62622 17.0404L14.2929 23.7071L15.7071 22.2929ZM20.9596 15.6262L14.2929 22.2929L15.7071 23.7071L22.3738 17.0404L20.9596 15.6262ZM20.8092 15.8188L20.8092 15.8188L22.5242 16.8478L22.5242 16.8478L20.8092 15.8188ZM20.9596 10.3738C22.41 11.8242 22.41 14.1758 20.9596 15.6262L22.3738 17.0404C24.6053 14.8089 24.6053 11.191 22.3738 8.95954L20.9596 10.3738ZM15.7071 10.3738C17.1575 8.92333 19.5091 8.92333 20.9596 10.3738L22.3738 8.95954C20.1423 6.72807 16.5244 6.72806 14.2929 8.95954L15.7071 10.3738ZM15.817 10.2433L15.817 10.2433L14.183 9.08996L14.183 9.08998L15.817 10.2433ZM9.04044 10.3738C10.4909 8.92335 12.8425 8.92335 14.2929 10.3738L15.7071 8.95956C13.4756 6.72809 9.8577 6.72809 7.62623 8.95956L9.04044 10.3738ZM9.04044 15.6262C7.59001 14.1758 7.59001 11.8242 9.04044 10.3738L7.62623 8.95956C5.39475 11.191 5.39475 14.809 7.62622 17.0404L9.04044 15.6262Z" fill="#646464" mask="url(#path-2-inside-1_121_7)"/>
</svg>
