<svg width="20" height="20" viewBox="0 0 20 20" fill="none" xmlns="http://www.w3.org/2000/svg">
<path d="M19 10C19 14.9706 14.9706 19 10 19C5.02944 19 1 14.9706 1 10C1 5.02944 5.02944 1 10 1C14.9706 1 19 5.02944 19 10Z" stroke="black" stroke-width="2"/>
<path d="M4.24002 16.48C9.30102 11.8353 10.6986 11.7642 15.76 16.48M10 12.16C11.5906 12.16 12.88 10.8706 12.88 9.28002C12.88 7.68944 11.5906 6.40002 10 6.40002C8.40944 6.40002 7.12002 7.68944 7.12002 9.28002C7.12002 10.8706 8.40944 12.16 10 12.16Z" stroke="black" stroke-width="2"/>
</svg>
