<svg width="43" height="40" viewBox="0 0 43 40" fill="none" xmlns="http://www.w3.org/2000/svg">
<mask id="mask0_130_36" style="mask-type:alpha" maskUnits="userSpaceOnUse" x="0" y="0" width="43" height="40">
<rect width="43" height="40" fill="#D9D9D9"/>
</mask>
<g mask="url(#mask0_130_36)">
<mask id="path-2-inside-1_130_36" fill="white">
<path fill-rule="evenodd" clip-rule="evenodd" d="M3.81707 22.2684L21.4512 39.9025L21.4513 39.9024L21.4513 39.9024L39.0854 22.2683C43.955 17.3988 43.955 9.5037 39.0854 4.63417C34.2159 -0.235357 26.3208 -0.235353 21.4513 4.63418L21.4512 4.63426L21.4512 4.63423C16.5817 -0.235305 8.6866 -0.235304 3.81707 4.63423C-1.05246 9.50376 -1.05246 17.3988 3.81707 22.2684Z"/>
</mask>
<path fill-rule="evenodd" clip-rule="evenodd" d="M3.81707 22.2684L21.4512 39.9025L21.4513 39.9024L21.4513 39.9024L39.0854 22.2683C43.955 17.3988 43.955 9.5037 39.0854 4.63417C34.2159 -0.235357 26.3208 -0.235353 21.4513 4.63418L21.4512 4.63426L21.4512 4.63423C16.5817 -0.235305 8.6866 -0.235304 3.81707 4.63423C-1.05246 9.50376 -1.05246 17.3988 3.81707 22.2684Z" fill="#886CE4"/>
<path d="M21.4512 39.9025L19.3299 42.0238L21.4512 44.1451L23.5725 42.0238L21.4512 39.9025ZM21.4513 39.9024L23.5726 37.7811L21.4513 35.6598L19.33 37.7811L21.4513 39.9024ZM21.4513 39.9024L19.33 42.0238L21.4513 44.1451L23.5726 42.0238L21.4513 39.9024ZM21.4512 4.63426L19.3299 6.75558L21.4512 8.8769L23.5725 6.75558L21.4512 4.63426ZM23.5725 37.7812L5.93839 20.147L1.69575 24.3897L19.3299 42.0238L23.5725 37.7812ZM19.33 37.7811L19.3299 37.7812L23.5725 42.0238L23.5726 42.0237L19.33 37.7811ZM23.5726 37.7811L23.5726 37.7811L19.33 42.0237L19.33 42.0238L23.5726 37.7811ZM36.9641 20.147L19.33 37.7811L23.5726 42.0238L41.2068 24.3896L36.9641 20.147ZM36.9641 6.75549C40.6621 10.4535 40.6621 16.449 36.9641 20.147L41.2068 24.3896C47.2479 18.3485 47.2479 8.55396 41.2068 2.51285L36.9641 6.75549ZM23.5726 6.7555C27.2706 3.05754 33.2662 3.05754 36.9641 6.75549L41.2068 2.51285C35.1657 -3.52825 25.3711 -3.52825 19.33 2.51286L23.5726 6.7555ZM23.5725 6.75558L23.5726 6.7555L19.33 2.51286L19.3299 2.51294L23.5725 6.75558ZM19.3299 6.75555L19.3299 6.75558L23.5725 2.51294L23.5725 2.51291L19.3299 6.75555ZM5.93839 6.75555C9.63635 3.05759 15.6319 3.05759 19.3299 6.75555L23.5725 2.51291C17.5314 -3.5282 7.73685 -3.5282 1.69575 2.51291L5.93839 6.75555ZM5.93839 20.147C2.24043 16.4491 2.24043 10.4535 5.93839 6.75555L1.69575 2.51291C-4.34536 8.55401 -4.34535 18.3486 1.69575 24.3897L5.93839 20.147Z" fill="black" mask="url(#path-2-inside-1_130_36)"/>
<path d="M8 11.0001L7.53315 13.2824C7.19984 14.912 7.69865 16.6005 8.8639 17.7874L13 22.0001" stroke="#9C89E9" stroke-width="4" stroke-linecap="round"/>
</g>
</svg>
