<svg width="18" height="15" viewBox="0 0 18 15" fill="none" xmlns="http://www.w3.org/2000/svg">
<mask id="path-1-inside-1_39_254" fill="white">
<path fill-rule="evenodd" clip-rule="evenodd" d="M2.33333 8.33333L9 15L15.6667 8.33333L15.6667 8.33333L15.6667 8.33331C17.5076 6.49236 17.5076 3.50759 15.6667 1.66665C13.8257 -0.174303 10.841 -0.174306 9.00001 1.66664L9 1.66667C7.15905 -0.174282 4.17428 -0.174282 2.33333 1.66667C0.492384 3.50762 0.49238 6.49238 2.33333 8.33333Z"/>
</mask>
<path d="M9 15L8.29289 15.7071L9 16.4142L9.70711 15.7071L9 15ZM15.6667 8.33333L16.3738 9.04044L17.0809 8.33333L16.3738 7.62623L15.6667 8.33333ZM15.6667 8.33333L14.9596 7.62622L14.2524 8.33333L14.9596 9.04043L15.6667 8.33333ZM9.00001 1.66664L8.29291 0.959535L8.20295 1.04949L8.13838 1.15911L9.00001 1.66664ZM9 1.66667L8.29289 2.37377L9.20614 3.28702L9.86163 2.1742L9 1.66667ZM9.70711 14.2929L3.04044 7.62622L1.62622 9.04044L8.29289 15.7071L9.70711 14.2929ZM14.9596 7.62623L8.29289 14.2929L9.70711 15.7071L16.3738 9.04044L14.9596 7.62623ZM14.9596 9.04043L14.9596 9.04044L16.3738 7.62623L16.3738 7.62622L14.9596 9.04043ZM14.9596 7.62621L14.9596 7.62622L16.3738 9.04043L16.3738 9.04042L14.9596 7.62621ZM14.9596 2.37375C16.41 3.82418 16.41 6.17578 14.9596 7.62621L16.3738 9.04042C18.6053 6.80895 18.6053 3.19101 16.3738 0.95954L14.9596 2.37375ZM9.70712 2.37375C11.1575 0.923326 13.5091 0.923327 14.9596 2.37375L16.3738 0.95954C14.1423 -1.27193 10.5244 -1.27194 8.29291 0.959535L9.70712 2.37375ZM9.86163 2.1742L9.86164 2.17418L8.13838 1.15911L8.13837 1.15913L9.86163 2.1742ZM3.04044 2.37377C4.49086 0.923349 6.84247 0.923349 8.29289 2.37377L9.70711 0.95956C7.47563 -1.27191 3.8577 -1.27191 1.62623 0.95956L3.04044 2.37377ZM3.04044 7.62622C1.59001 6.1758 1.59001 3.8242 3.04044 2.37377L1.62623 0.95956C-0.605246 3.19103 -0.605252 6.80896 1.62622 9.04044L3.04044 7.62622Z" fill="#646464" mask="url(#path-1-inside-1_39_254)"/>
</svg>
